<svg width="32" height="32" viewBox="0 0 32 32" fill="none" xmlns="http://www.w3.org/2000/svg">
<path d="M6.83333 27C6.34444 27 5.91667 26.8167 5.55 26.45C5.18333 26.0833 5 25.6556 5 25.1667V9.18611C5 8.88056 5.03056 8.62083 5.09167 8.40694C5.15278 8.19306 5.26481 7.99444 5.42778 7.81111L7.13889 5.48889C7.30185 5.30556 7.49028 5.17824 7.70417 5.10694C7.91806 5.03565 8.16759 5 8.45278 5H23.5472C23.8324 5 24.0769 5.03565 24.2806 5.10694C24.4843 5.17824 24.6676 5.30556 24.8306 5.48889L26.5722 7.81111C26.7352 7.99444 26.8472 8.19306 26.9083 8.40694C26.9694 8.62083 27 8.88056 27 9.18611V25.1667C27 25.6556 26.8167 26.0833 26.45 26.45C26.0833 26.8167 25.6556 27 25.1667 27H6.83333ZM7.35278 8.23889H24.6167L23.5167 6.83333H8.45278L7.35278 8.23889ZM16 22.4167L20.7667 17.65L19.5444 16.4278L16.9167 19.0556V12.9139H15.0833V19.0556L12.4556 16.4278L11.2333 17.65L16 22.4167Z" fill="#212121"/>
</svg>
