<svg width="32" height="32" viewBox="0 0 32 32" fill="none" xmlns="http://www.w3.org/2000/svg">
<path d="M2 26V20.75C2 20.1156 2.22519 19.5742 2.67557 19.1258C3.12595 18.6773 3.6697 18.4531 4.30682 18.4531H8.95341C9.32689 18.4531 9.6839 18.5461 10.0244 18.732C10.365 18.918 10.6561 19.175 10.8977 19.5031C11.5348 20.4219 12.3477 21.1328 13.3364 21.6359C14.325 22.1391 15.3795 22.3906 16.5 22.3906C17.6205 22.3906 18.675 22.1391 19.6636 21.6359C20.6523 21.1328 21.4761 20.4219 22.1352 19.5031C22.3769 19.175 22.6625 18.918 22.992 18.732C23.3216 18.5461 23.6731 18.4531 24.0466 18.4531H28.6932C29.3303 18.4531 29.8741 18.6773 30.3244 19.1258C30.7748 19.5742 31 20.1156 31 20.75V26H22.4318V22.0953C21.6409 22.8172 20.7347 23.375 19.7131 23.7687C18.6915 24.1625 17.6205 24.3594 16.5 24.3594C15.3795 24.3594 14.314 24.1625 13.3034 23.7687C12.2928 23.375 11.3811 22.8172 10.5682 22.0953V26H2ZM16.5 20.4219C15.7311 20.4219 14.9896 20.2414 14.2756 19.8805C13.5616 19.5195 12.9848 19.0219 12.5455 18.3875C12.1939 17.8844 11.771 17.4797 11.2767 17.1734C10.7824 16.8672 10.2496 16.6594 9.67841 16.55C10.3155 15.8937 11.3152 15.3906 12.6773 15.0406C14.0394 14.6906 15.3136 14.5156 16.5 14.5156C17.6864 14.5156 18.9661 14.6906 20.3392 15.0406C21.7123 15.3906 22.7174 15.8937 23.3545 16.55C22.7833 16.6594 22.2506 16.8672 21.7562 17.1734C21.2619 17.4797 20.839 17.8844 20.4875 18.3875C20.0481 19.0219 19.4714 19.5195 18.7574 19.8805C18.0434 20.2414 17.2909 20.4219 16.5 20.4219ZM5.95455 16.1562C4.96591 16.1562 4.11458 15.8008 3.40057 15.0898C2.68655 14.3789 2.32955 13.5312 2.32955 12.5469C2.32955 11.5406 2.68655 10.6875 3.40057 9.9875C4.11458 9.2875 4.96591 8.9375 5.95455 8.9375C6.96515 8.9375 7.82197 9.2875 8.525 9.9875C9.22803 10.6875 9.57955 11.5406 9.57955 12.5469C9.57955 13.5312 9.22803 14.3789 8.525 15.0898C7.82197 15.8008 6.96515 16.1562 5.95455 16.1562ZM27.0455 16.1562C26.0568 16.1562 25.2055 15.8008 24.4915 15.0898C23.7775 14.3789 23.4205 13.5312 23.4205 12.5469C23.4205 11.5406 23.7775 10.6875 24.4915 9.9875C25.2055 9.2875 26.0568 8.9375 27.0455 8.9375C28.0561 8.9375 28.9129 9.2875 29.6159 9.9875C30.3189 10.6875 30.6705 11.5406 30.6705 12.5469C30.6705 13.5312 30.3189 14.3789 29.6159 15.0898C28.9129 15.8008 28.0561 16.1562 27.0455 16.1562ZM16.5 12.2187C15.5114 12.2187 14.66 11.8633 13.946 11.1523C13.232 10.4414 12.875 9.59375 12.875 8.60937C12.875 7.60312 13.232 6.75 13.946 6.05C14.66 5.35 15.5114 5 16.5 5C17.5106 5 18.3674 5.35 19.0705 6.05C19.7735 6.75 20.125 7.60312 20.125 8.60937C20.125 9.59375 19.7735 10.4414 19.0705 11.1523C18.3674 11.8633 17.5106 12.2187 16.5 12.2187Z" fill="#212121"/>
</svg>
