<svg width="32" height="32" viewBox="0 0 32 32" fill="none" xmlns="http://www.w3.org/2000/svg">
<path d="M12.75 26L11.4062 24.6953L13.7188 22.3965H12.6875C10.2708 22.3965 8.21875 21.5473 6.53125 19.8491C4.84375 18.1509 4 16.1006 4 13.6982C4 11.2959 4.83854 9.24556 6.51562 7.54734C8.19271 5.84911 10.2396 5 12.6562 5H20.3438C22.7604 5 24.8073 5.84911 26.4844 7.54734C28.1615 9.24556 29 11.2959 29 13.6982C29 16.1213 28.151 18.1768 26.4531 19.8646C24.7552 21.5525 22.6875 22.3965 20.25 22.3965V20.5325C22.1667 20.5325 23.7917 19.8698 25.125 18.5444C26.4583 17.2189 27.125 15.6036 27.125 13.6982C27.125 11.8136 26.474 10.2034 25.1719 8.8676C23.8698 7.5318 22.2708 6.86391 20.375 6.86391H12.625C10.7292 6.86391 9.13021 7.5318 7.82812 8.8676C6.52604 10.2034 5.875 11.8136 5.875 13.6982C5.875 15.5828 6.53646 17.193 7.85938 18.5288C9.18229 19.8646 10.7917 20.5325 12.6875 20.5325L13.75 20.5015L11.4375 18.2337L12.75 16.929L17.3125 21.4645L12.75 26Z" fill="#212121"/>
</svg>
