<svg width="32" height="32" viewBox="0 0 32 32" fill="none" xmlns="http://www.w3.org/2000/svg">
<path d="M15.6667 28C14.2 28 12.8389 27.6333 11.5833 26.9C10.3278 26.1667 9.42222 25.2 8.86667 24H5V22H8.06667C7.93333 21.4889 7.86667 20.9056 7.86667 20.25V18.4667H5V16.4667H7.86667V14.55C7.86667 13.85 7.95556 13.2222 8.13333 12.6667H5V10.6667H9C9.31111 10.1111 9.73333 9.57222 10.2667 9.05C10.8 8.52778 11.3556 8.13333 11.9333 7.86667L9.36667 5.33333L10.7 4L13.8333 7.13333C14.3889 6.95556 15.0167 6.86667 15.7167 6.86667C16.4167 6.86667 17.0444 6.95556 17.6 7.13333L20.7333 4L22.0667 5.33333L19.5333 7.86667C20.0889 8.13333 20.6333 8.53333 21.1667 9.06667C21.7 9.6 22.1222 10.1333 22.4333 10.6667H26.3667V12.6667H23.2C23.3778 13.2222 23.4667 13.85 23.4667 14.55V16.4667H26.3667V18.4667H23.4667V20.25C23.4667 20.9056 23.4 21.4889 23.2667 22H26.3667V24H22.5C21.9667 25.2 21.0667 26.1667 19.8 26.9C18.5333 27.6333 17.1556 28 15.6667 28ZM13 21.3333H18.3333V19.3333H13V21.3333ZM13 15.5667H18.3333V13.5667H13V15.5667Z" fill="#212121"/>
</svg>
