<svg width="32" height="32" viewBox="0 0 32 32" fill="none" xmlns="http://www.w3.org/2000/svg">
<path d="M16 28C15.32 28 14.745 27.7603 14.275 27.2809C13.805 26.8015 13.57 26.215 13.57 25.5214H18.43C18.43 26.215 18.195 26.8015 17.725 27.2809C17.255 27.7603 16.68 28 16 28ZM11.14 23.6242V21.7882H20.86V23.6242H11.14ZM11.29 19.9217C9.97 19.0445 8.925 17.948 8.155 16.6322C7.385 15.3164 7 13.8323 7 12.1799C7 9.69115 7.89 7.53896 9.67 5.72338C11.45 3.90779 13.56 3 16 3C18.44 3 20.55 3.90779 22.33 5.72338C24.11 7.53896 25 9.69115 25 12.1799C25 13.8323 24.62 15.3164 23.86 16.6322C23.1 17.948 22.05 19.0445 20.71 19.9217H11.29Z" fill="#212121"/>
</svg>
