<svg width="32" height="32" viewBox="0 0 32 32" fill="none" xmlns="http://www.w3.org/2000/svg">
    <path
        d="M13.317 19.832H18.6837V18.832H13.317V19.832ZM13.317 16.9987H18.6837V15.9987H13.317V16.9987ZM11.667 22.6654C11.4003 22.6654 11.167 22.5654 10.967 22.3654C10.767 22.1654 10.667 21.932 10.667 21.6654V10.332C10.667 10.0654 10.767 9.83203 10.967 9.63203C11.167 9.43203 11.4003 9.33203 11.667 9.33203H17.6837L21.3337 12.982V21.6654C21.3337 21.932 21.2337 22.1654 21.0337 22.3654C20.8337 22.5654 20.6003 22.6654 20.3337 22.6654H11.667ZM17.1837 13.432H20.3337L17.1837 10.332V13.432Z"
        fill="#9E9E9E" />
    <rect x="0.5" y="0.5" width="31" height="31" rx="15.5" stroke="#9E9E9E" stroke-dasharray="2 2" />
</svg>