<svg width="16" height="17" viewBox="0 0 16 17" fill="none" xmlns="http://www.w3.org/2000/svg">
    <path
        d="M5.31699 12.334H10.6837V11.334H5.31699V12.334ZM5.31699 9.50065H10.6837V8.50065H5.31699V9.50065ZM3.66699 15.1673C3.40033 15.1673 3.16699 15.0673 2.96699 14.8673C2.76699 14.6673 2.66699 14.434 2.66699 14.1673V2.83398C2.66699 2.56732 2.76699 2.33398 2.96699 2.13398C3.16699 1.93398 3.40033 1.83398 3.66699 1.83398H9.68366L13.3337 5.48398V14.1673C13.3337 14.434 13.2337 14.6673 13.0337 14.8673C12.8337 15.0673 12.6003 15.1673 12.3337 15.1673H3.66699ZM9.18366 5.93398H12.3337L9.18366 2.83398V5.93398Z"
        fill="#9E9E9E" />
</svg>