<svg width="20" height="20" viewBox="0 0 20 20" fill="none" xmlns="http://www.w3.org/2000/svg">
<path d="M9.99704 2.66664C9.72124 2.66664 9.48611 2.76485 9.29167 2.96127C9.09722 3.15767 9 3.39378 9 3.6696C9 3.94541 9.09821 4.18053 9.29462 4.37498C9.49103 4.56942 9.72714 4.66664 10.003 4.66664C10.2788 4.66664 10.5139 4.56843 10.7083 4.37202C10.9028 4.17562 11 3.9395 11 3.66368C11 3.38788 10.9018 3.15275 10.7054 2.95831C10.509 2.76387 10.2729 2.66664 9.99704 2.66664ZM9.99704 8.33331C9.72124 8.33331 9.48611 8.43152 9.29167 8.62794C9.09722 8.82434 9 9.06045 9 9.33627C9 9.61207 9.09821 9.8472 9.29462 10.0416C9.49103 10.2361 9.72714 10.3333 10.003 10.3333C10.2788 10.3333 10.5139 10.2351 10.7083 10.0387C10.9028 9.84228 11 9.60617 11 9.33035C11 9.05455 10.9018 8.81942 10.7054 8.62498C10.509 8.43053 10.2729 8.33331 9.99704 8.33331ZM9.99704 14C9.72124 14 9.48611 14.0982 9.29167 14.2946C9.09722 14.491 9 14.7271 9 15.0029C9 15.2787 9.09821 15.5139 9.29462 15.7083C9.49103 15.9028 9.72714 16 10.003 16C10.2788 16 10.5139 15.9018 10.7083 15.7054C10.9028 15.5089 11 15.2728 11 14.997C11 14.7212 10.9018 14.4861 10.7054 14.2916C10.509 14.0972 10.2729 14 9.99704 14Z" fill="#42464A"/>
</svg>
