<svg width="32" height="32" viewBox="0 0 32 32" fill="none" xmlns="http://www.w3.org/2000/svg">
    <path
        d="M17.6792 18.3745C17.7044 19.9389 17.2277 21.3113 16.1103 22.4323C14.5259 24.0219 12.1718 24.4542 10.1321 23.523C9.90304 23.4184 9.70063 23.4043 9.45818 23.4614C8.66856 23.6497 7.87374 23.8136 6.99959 24.0041C7.36141 23.434 7.67652 22.9142 8.0161 22.4115C8.17476 22.1773 8.18589 22.0171 8.00424 21.768C5.66502 18.5524 7.61647 13.977 11.5572 13.392C12.4328 13.2623 13.2751 13.3757 14.1114 13.6189C16.2482 14.4923 17.4404 16.076 17.6792 18.3737V18.3745ZM12.0376 19.0291C12.0376 19.2019 12.051 19.3761 12.0347 19.5474C12.0117 19.7854 12.0925 19.8625 12.3394 19.8655C12.6019 19.8684 12.6567 19.7624 12.6345 19.5378C12.6226 19.4154 12.6449 19.2894 12.63 19.1678C12.587 18.8289 12.6753 18.6295 13.0349 18.476C13.6539 18.2121 13.9446 17.4699 13.7711 16.8241C13.5828 16.1227 12.9822 15.6771 12.263 15.7053C11.5957 15.732 11.0107 16.2339 10.8765 16.8908C10.8395 17.0718 10.8358 17.1956 11.0893 17.1941C11.3073 17.1926 11.4348 17.1696 11.5075 16.9175C11.6321 16.489 12.045 16.248 12.4476 16.3044C12.8725 16.3644 13.2143 16.7455 13.2232 17.1696C13.2313 17.5796 12.9414 17.9971 12.5159 18.0423C12.0918 18.0875 11.9998 18.2959 12.0369 18.6577C12.0495 18.78 12.0391 18.9046 12.0391 19.0277L12.0376 19.0291ZM12.3379 20.4423C12.0903 20.4749 11.9049 20.5973 11.896 20.8753C11.8879 21.1489 12.0458 21.3187 12.3171 21.3298C12.5907 21.3417 12.759 21.1808 12.7724 20.9094C12.785 20.6336 12.6167 20.489 12.3379 20.4423Z"
        fill="#9E9E9E" />
    <path
        d="M17.6802 18.3739C17.4408 16.0762 16.2493 14.4925 14.1125 13.619C14.065 11.6921 14.8124 10.1454 16.3516 8.98955C18.3268 7.50594 21.314 7.71873 23.089 9.43885C24.3079 10.62 24.8758 12.0494 24.7743 13.731C24.7142 14.7216 24.3821 15.638 23.7808 16.4343C23.605 16.6671 23.6139 16.8332 23.7563 17.0571C24.0803 17.5664 24.4369 18.0558 24.709 18.597L24.7127 18.5933C23.8875 18.5451 23.1068 18.2663 22.3001 18.1203C22.1148 18.0869 21.9457 18.0543 21.7641 18.1403C20.4354 18.7683 19.0734 18.841 17.681 18.3746L17.6802 18.3739ZM19.453 11.2583C18.762 11.2583 18.071 11.2687 17.3807 11.2531C17.1316 11.2472 17.0715 11.3332 17.0708 11.5697C17.0693 11.8077 17.1568 11.8567 17.374 11.8552C18.7561 11.847 20.1381 11.8455 21.5194 11.8567C21.7678 11.8589 21.8286 11.7766 21.8293 11.5401C21.8308 11.3021 21.7433 11.2509 21.5261 11.2546C20.835 11.2657 20.144 11.2591 19.453 11.2591V11.2583ZM19.4508 13.6294C20.1418 13.6294 20.8328 13.6228 21.5231 13.6331C21.7366 13.6361 21.8315 13.5916 21.8286 13.3499C21.8256 13.1171 21.773 13.0289 21.5209 13.0304C20.1388 13.0415 18.7575 13.0392 17.3755 13.0318C17.162 13.0304 17.0671 13.0734 17.07 13.3151C17.073 13.5479 17.1249 13.6406 17.3777 13.6346C18.068 13.6183 18.759 13.6294 19.45 13.6294H19.4508ZM20.0113 15.4081C20.5296 15.4081 21.0478 15.3977 21.5654 15.4126C21.7945 15.4192 21.8256 15.3154 21.8256 15.1242C21.8256 14.9255 21.8093 14.8061 21.5535 14.8098C20.5422 14.8239 19.5309 14.8217 18.5195 14.8105C18.2912 14.8083 18.2593 14.9077 18.2593 15.0989C18.2593 15.2977 18.2749 15.423 18.5314 15.4133C19.0237 15.3948 19.5175 15.4081 20.0113 15.4074V15.4081Z"
        fill="#9E9E9E" />
    <path
        d="M24.707 18.5955C24.7167 18.6007 24.7271 18.6066 24.7367 18.6118C24.7278 18.6051 24.7196 18.5985 24.7107 18.5918L24.707 18.5955Z"
        fill="#9E9E9E" />
    <path
        d="M12.0371 19.0287C12.0371 18.9049 12.0475 18.7803 12.0348 18.6587C11.9978 18.2969 12.0897 18.0886 12.5138 18.0433C12.9394 17.9974 13.23 17.5799 13.2211 17.1707C13.2122 16.7473 12.8704 16.3655 12.4456 16.3054C12.0437 16.2491 11.63 16.4893 11.5055 16.9186C11.4321 17.1707 11.3053 17.1937 11.0873 17.1951C10.8337 17.1966 10.8382 17.0735 10.8745 16.8919C11.008 16.235 11.593 15.7323 12.261 15.7063C12.9802 15.6782 13.5807 16.1238 13.7691 16.8252C13.9426 17.4709 13.6519 18.2131 13.0328 18.4771C12.6732 18.6298 12.585 18.83 12.628 19.1688C12.6436 19.2904 12.6206 19.4165 12.6324 19.5388C12.6547 19.7627 12.6006 19.8695 12.3373 19.8665C12.0905 19.8636 12.0089 19.7864 12.0326 19.5484C12.0497 19.3772 12.0356 19.2029 12.0356 19.0302L12.0371 19.0287Z"
        fill="white" />
    <path
        d="M12.3377 20.4414C12.6165 20.4889 12.7848 20.6334 12.7722 20.9085C12.7596 21.1799 12.5905 21.3408 12.3169 21.3289C12.0456 21.317 11.8877 21.1472 11.8958 20.8744C11.9047 20.5964 12.0901 20.474 12.3377 20.4414Z"
        fill="white" />
    <path
        d="M19.4525 11.2583C20.1436 11.2583 20.8346 11.2657 21.5256 11.2539C21.7428 11.2502 21.8303 11.3013 21.8288 11.5393C21.8273 11.7758 21.7673 11.8581 21.5189 11.8559C20.1369 11.8448 18.7556 11.8463 17.3736 11.8544C17.1563 11.8559 17.0696 11.807 17.0703 11.569C17.0718 11.3325 17.1311 11.2465 17.3802 11.2524C18.0705 11.268 18.7623 11.2576 19.4525 11.2576V11.2583Z"
        fill="white" />
    <path
        d="M19.4504 13.6322C18.7594 13.6322 18.0683 13.6218 17.3781 13.6374C17.1252 13.6433 17.0733 13.5506 17.0704 13.3178C17.0674 13.0761 17.1623 13.0339 17.3758 13.0346C18.7579 13.042 20.1392 13.0442 21.5212 13.0331C21.7733 13.0309 21.8259 13.1199 21.8289 13.3527C21.8319 13.5944 21.737 13.6389 21.5234 13.6359C20.8324 13.6255 20.1414 13.6322 19.4511 13.6322H19.4504Z"
        fill="white" />
    <path
        d="M20.0108 15.407C19.5177 15.407 19.0239 15.3937 18.5309 15.4122C18.2744 15.4218 18.2588 15.2965 18.2588 15.0978C18.2588 14.9065 18.2907 14.8072 18.519 14.8094C19.5303 14.8205 20.5417 14.822 21.553 14.8087C21.8088 14.805 21.8251 14.9243 21.8251 15.123C21.8251 15.3143 21.7939 15.4181 21.5648 15.4115C21.0473 15.3966 20.5291 15.407 20.0108 15.407Z"
        fill="white" />
    <rect x="0.5" y="0.5" width="31" height="31" rx="15.5" stroke="#9E9E9E" stroke-dasharray="2 2" />
</svg>