<svg width="19" height="17" viewBox="0 0 19 17" fill="none" xmlns="http://www.w3.org/2000/svg">
    <path
        d="M11.6792 10.8744C11.7044 12.4389 11.2277 13.8113 10.1103 14.9323C8.52587 16.5219 6.17183 16.9542 4.13215 16.0229C3.90304 15.9184 3.70063 15.9043 3.45818 15.9614C2.66856 16.1497 1.87374 16.3136 0.999595 16.5041C1.36141 15.934 1.67652 15.4142 2.0161 14.9115C2.17476 14.6772 2.18589 14.5171 2.00424 14.268C-0.334983 11.0524 1.61647 6.47701 5.55718 5.89202C6.43281 5.76227 7.27508 5.87571 8.11141 6.1189C10.2482 6.99231 11.4404 8.57601 11.6792 10.8737V10.8744ZM6.03763 11.5291C6.03763 11.7019 6.05097 11.8761 6.03466 12.0474C6.01168 12.2854 6.09249 12.3625 6.33939 12.3655C6.60186 12.3684 6.65672 12.2624 6.63448 12.0378C6.62262 11.9154 6.64486 11.7894 6.63003 11.6678C6.58703 11.3289 6.67526 11.1295 7.03485 10.976C7.65395 10.7121 7.94459 9.9699 7.77109 9.32411C7.58277 8.62272 6.98221 8.17711 6.26302 8.20529C5.59573 8.23198 5.01074 8.73393 4.87654 9.39084C4.83947 9.57175 4.83576 9.69557 5.08933 9.69408C5.30732 9.6926 5.43484 9.66962 5.5075 9.41753C5.63206 8.98898 6.04504 8.74802 6.44764 8.80437C6.87248 8.86442 7.21428 9.24552 7.22318 9.66962C7.23133 10.0796 6.94143 10.4971 6.51585 10.5423C6.09175 10.5875 5.99981 10.7959 6.03688 11.1577C6.04949 11.28 6.03911 11.4046 6.03911 11.5276L6.03763 11.5291ZM6.33791 12.9423C6.09027 12.9749 5.90491 13.0973 5.89601 13.3753C5.88786 13.6489 6.04578 13.8187 6.31715 13.8298C6.59073 13.8417 6.75904 13.6808 6.77239 13.4094C6.78499 13.1336 6.61668 12.989 6.33791 12.9423Z"
        fill="#9E9E9E" />
    <path
        d="M11.6802 10.8739C11.4408 8.57615 10.2493 6.99246 8.11248 6.11905C8.06502 4.19207 8.81239 2.64544 10.3516 1.48955C12.3268 0.00594062 15.314 0.218732 17.089 1.93885C18.3079 3.11996 18.8758 4.54944 18.7743 6.23101C18.7142 7.22156 18.3821 8.13797 17.7808 8.93427C17.605 9.16708 17.6139 9.33316 17.7563 9.55707C18.0803 10.0664 18.4369 10.5558 18.709 11.097L18.7127 11.0933C17.8875 11.0451 17.1068 10.7663 16.3001 10.6203C16.1148 10.5869 15.9457 10.5543 15.7641 10.6403C14.4354 11.2683 13.0734 11.341 11.681 10.8746L11.6802 10.8739ZM13.453 3.75833C12.762 3.75833 12.071 3.76871 11.3807 3.75314C11.1316 3.74721 11.0715 3.83321 11.0708 4.06973C11.0693 4.30773 11.1568 4.35666 11.374 4.35518C12.7561 4.34703 14.1381 4.34554 15.5194 4.35666C15.7678 4.35889 15.8286 4.27659 15.8293 4.04007C15.8308 3.80207 15.7433 3.75091 15.5261 3.75462C14.835 3.76574 14.144 3.75907 13.453 3.75907V3.75833ZM13.4508 6.12943C14.1418 6.12943 14.8328 6.12276 15.5231 6.13314C15.7366 6.1361 15.8315 6.09162 15.8286 5.84991C15.8256 5.6171 15.773 5.52887 15.5209 5.53035C14.1388 5.54147 12.7575 5.53925 11.3755 5.53183C11.162 5.53035 11.0671 5.57335 11.07 5.81506C11.073 6.04787 11.1249 6.14055 11.3777 6.13462C12.068 6.11831 12.759 6.12943 13.45 6.12943H13.4508ZM14.0113 7.90812C14.5296 7.90812 15.0478 7.89774 15.5654 7.91257C15.7945 7.91925 15.8256 7.81544 15.8256 7.62416C15.8256 7.42545 15.8093 7.30608 15.5535 7.30979C14.5422 7.32388 13.5309 7.32165 12.5195 7.31053C12.2912 7.30831 12.2593 7.40766 12.2593 7.59895C12.2593 7.79765 12.2749 7.92295 12.5314 7.91331C13.0237 7.89478 13.5175 7.90812 14.0113 7.90738V7.90812Z"
        fill="#9E9E9E" />
    <path
        d="M18.707 11.0955C18.7167 11.1007 18.7271 11.1066 18.7367 11.1118C18.7278 11.1051 18.7196 11.0985 18.7107 11.0918L18.707 11.0955Z"
        fill="#9E9E9E" />
    <path
        d="M6.03707 11.5287C6.03707 11.4049 6.04745 11.2803 6.03485 11.1587C5.99777 10.7969 6.08971 10.5886 6.51381 10.5433C6.93939 10.4974 7.23003 10.0799 7.22114 9.67067C7.21224 9.24731 6.87044 8.86547 6.4456 8.80542C6.04374 8.74907 5.63002 8.98929 5.50546 9.41858C5.43206 9.67067 5.30528 9.69365 5.0873 9.69514C4.83373 9.69662 4.83817 9.57354 4.8745 9.39189C5.00796 8.73498 5.59295 8.23229 6.26098 8.20634C6.98017 8.17817 7.58073 8.62377 7.76906 9.32516C7.94255 9.97095 7.65191 10.7131 7.03281 10.9771C6.67322 11.1298 6.58499 11.33 6.62799 11.6688C6.64356 11.7904 6.62058 11.9165 6.63244 12.0388C6.65468 12.2627 6.60056 12.3695 6.33735 12.3665C6.09045 12.3636 6.0089 12.2864 6.03262 12.0484C6.04967 11.8772 6.03559 11.7029 6.03559 11.5302L6.03707 11.5287Z"
        fill="white" />
    <path
        d="M6.3377 12.9414C6.61648 12.9889 6.78479 13.1334 6.77218 13.4085C6.75958 13.6799 6.59053 13.8408 6.31694 13.8289C6.04558 13.817 5.88765 13.6472 5.89581 13.3744C5.90471 13.0964 6.09006 12.974 6.3377 12.9414Z"
        fill="white" />
    <path
        d="M13.4525 3.75832C14.1436 3.75832 14.8346 3.76573 15.5256 3.75387C15.7428 3.75016 15.8303 3.80132 15.8288 4.03932C15.8273 4.27584 15.7673 4.35814 15.5189 4.35591C14.1369 4.34479 12.7556 4.34627 11.3736 4.35443C11.1563 4.35591 11.0696 4.30698 11.0703 4.06898C11.0718 3.83246 11.1311 3.74646 11.3802 3.75239C12.0705 3.76796 12.7623 3.75758 13.4525 3.75758V3.75832Z"
        fill="white" />
    <path
        d="M13.4504 6.1322C12.7594 6.1322 12.0683 6.12182 11.3781 6.13739C11.1252 6.14332 11.0733 6.05064 11.0704 5.81783C11.0674 5.57612 11.1623 5.53386 11.3758 5.5346C12.7579 5.54201 14.1392 5.54424 15.5212 5.53312C15.7733 5.53089 15.8259 5.61987 15.8289 5.85267C15.8319 6.09438 15.737 6.13887 15.5234 6.1359C14.8324 6.12552 14.1414 6.1322 13.4511 6.1322H13.4504Z"
        fill="white" />
    <path
        d="M14.0108 7.90701C13.5177 7.90701 13.0239 7.89367 12.5309 7.9122C12.2744 7.92184 12.2588 7.79654 12.2588 7.59784C12.2588 7.40655 12.2907 7.30719 12.519 7.30942C13.5303 7.32054 14.5417 7.32202 15.553 7.30868C15.8088 7.30497 15.8251 7.42434 15.8251 7.62304C15.8251 7.81433 15.7939 7.91813 15.5648 7.91146C15.0473 7.89663 14.5291 7.90701 14.0108 7.90701Z"
        fill="white" />
</svg>