<svg width="40" height="40" viewBox="0 0 40 40" fill="none" xmlns="http://www.w3.org/2000/svg">
    <path
        d="M15.9585 27.0833L27.0835 20L15.9585 12.9167V27.0833ZM20.0002 36.6667C17.7224 36.6667 15.5696 36.2292 13.5418 35.3542C11.5141 34.4792 9.74322 33.2847 8.22933 31.7708C6.71544 30.2569 5.521 28.4861 4.646 26.4583C3.771 24.4306 3.3335 22.2778 3.3335 20C3.3335 17.6944 3.771 15.5278 4.646 13.5C5.521 11.4722 6.71544 9.70833 8.22933 8.20833C9.74322 6.70833 11.5141 5.52083 13.5418 4.64583C15.5696 3.77083 17.7224 3.33333 20.0002 3.33333C22.3057 3.33333 24.4724 3.77083 26.5002 4.64583C28.5279 5.52083 30.2918 6.70833 31.7918 8.20833C33.2918 9.70833 34.4793 11.4722 35.3543 13.5C36.2293 15.5278 36.6668 17.6944 36.6668 20C36.6668 22.2778 36.2293 24.4306 35.3543 26.4583C34.4793 28.4861 33.2918 30.2569 31.7918 31.7708C30.2918 33.2847 28.5279 34.4792 26.5002 35.3542C24.4724 36.2292 22.3057 36.6667 20.0002 36.6667ZM20.0002 34.1667C23.9446 34.1667 27.2918 32.7847 30.0418 30.0208C32.7918 27.2569 34.1668 23.9167 34.1668 20C34.1668 16.0556 32.7918 12.7083 30.0418 9.95833C27.2918 7.20833 23.9446 5.83333 20.0002 5.83333C16.0835 5.83333 12.7432 7.20833 9.97933 9.95833C7.21544 12.7083 5.8335 16.0556 5.8335 20C5.8335 23.9167 7.21544 27.2569 9.97933 30.0208C12.7432 32.7847 16.0835 34.1667 20.0002 34.1667Z"
        fill="white" />
</svg>