<svg width="12" height="15" viewBox="0 0 12 15" fill="none" xmlns="http://www.w3.org/2000/svg">
<path d="M0.874023 14.5V0.5H6.57402C7.67402 0.5 8.62819 0.85 9.43652 1.55C10.2449 2.25 10.649 3.13333 10.649 4.2C10.649 4.83333 10.474 5.41667 10.124 5.95C9.77402 6.48333 9.30736 6.89167 8.72402 7.175V7.325C9.44069 7.55833 10.0199 7.975 10.4615 8.575C10.9032 9.175 11.124 9.85 11.124 10.6C11.124 11.7333 10.6865 12.6667 9.81152 13.4C8.93652 14.1333 7.91569 14.5 6.74902 14.5H0.874023ZM3.02402 12.6H6.62402C7.25736 12.6 7.80736 12.3917 8.27402 11.975C8.74069 11.5583 8.97402 11.0333 8.97402 10.4C8.97402 9.78333 8.74069 9.26667 8.27402 8.85C7.80736 8.43333 7.25736 8.225 6.62402 8.225H3.02402V12.6ZM3.02402 6.425H6.42402C7.00736 6.425 7.51152 6.23333 7.93652 5.85C8.36152 5.46667 8.57402 4.98333 8.57402 4.4C8.57402 3.81667 8.36152 3.32917 7.93652 2.9375C7.51152 2.54583 7.00736 2.35 6.42402 2.35H3.02402V6.425Z" fill="#8246FD"/>
</svg>
