<svg width="18" height="17" viewBox="0 0 18 17" fill="none" xmlns="http://www.w3.org/2000/svg">
<path d="M6.4249 15.55V14.05H17.9999V15.55H6.4249ZM6.4249 9.25V7.75H17.9999V9.25H6.4249ZM6.4249 2.925V1.425H17.9999V2.925H6.4249ZM1.7249 16.475C1.2574 16.475 0.857194 16.3167 0.524278 16C0.191361 15.6833 0.0249023 15.2875 0.0249023 14.8125C0.0249023 14.3375 0.187402 13.9375 0.512402 13.6125C0.837402 13.2875 1.2374 13.125 1.7124 13.125C2.1874 13.125 2.58324 13.2915 2.8999 13.6244C3.21657 13.9573 3.3749 14.3575 3.3749 14.825C3.3749 15.2788 3.21334 15.6672 2.89023 15.9903C2.56709 16.3134 2.17865 16.475 1.7249 16.475ZM1.7249 10.175C1.2574 10.175 0.857194 10.011 0.524278 9.68297C0.191361 9.35496 0.0249023 8.96063 0.0249023 8.5C0.0249023 8.03937 0.191361 7.64504 0.524278 7.31703C0.857194 6.98901 1.2574 6.825 1.7249 6.825C2.17865 6.825 2.56709 6.98901 2.89023 7.31703C3.21334 7.64504 3.3749 8.03937 3.3749 8.5C3.3749 8.96063 3.21334 9.35496 2.89023 9.68297C2.56709 10.011 2.17865 10.175 1.7249 10.175ZM1.6999 3.85C1.23929 3.85 0.844961 3.68599 0.516927 3.35797C0.188911 3.02996 0.0249023 2.63563 0.0249023 2.175C0.0249023 1.71437 0.188911 1.32004 0.516927 0.992026C0.844961 0.664009 1.23929 0.5 1.6999 0.5C2.16052 0.5 2.55484 0.664009 2.88288 0.992026C3.21089 1.32004 3.3749 1.71437 3.3749 2.175C3.3749 2.63563 3.21089 3.02996 2.88288 3.35797C2.55484 3.68599 2.16052 3.85 1.6999 3.85Z" fill="#8246FD"/>
</svg>
