<svg width="18" height="21" viewBox="0 0 18 21" fill="none" xmlns="http://www.w3.org/2000/svg">
<path d="M0 20.5V19H2.5V18.25H1V16.75H2.5V16H0V14.5H3C3.28333 14.5 3.52083 14.5958 3.7125 14.7875C3.90417 14.9792 4 15.2167 4 15.5V16.5C4 16.7833 3.90417 17.0208 3.7125 17.2125C3.52083 17.4042 3.28333 17.5 3 17.5C3.28333 17.5 3.52083 17.5958 3.7125 17.7875C3.90417 17.9792 4 18.2167 4 18.5V19.5C4 19.7833 3.90417 20.0208 3.7125 20.2125C3.52083 20.4042 3.28333 20.5 3 20.5H0ZM0 13.5V10.75C0 10.4667 0.0958333 10.2292 0.2875 10.0375C0.479167 9.84583 0.716667 9.75 1 9.75H2.5V9H0V7.5H3C3.28333 7.5 3.52083 7.59583 3.7125 7.7875C3.90417 7.97917 4 8.21667 4 8.5V10.25C4 10.5333 3.90417 10.7708 3.7125 10.9625C3.52083 11.1542 3.28333 11.25 3 11.25H1.5V12H4V13.5H0ZM1.5 6.5V2H0V0.5H3V6.5H1.5ZM6.225 17.275V15.775H18V17.275H6.225ZM6.225 11.2V9.7H18V11.2H6.225ZM6.225 5.125V3.625H18V5.125H6.225Z" fill="#8246FD"/>
</svg>
