<svg width="14" height="18" viewBox="0 0 14 18" fill="none" xmlns="http://www.w3.org/2000/svg">
<path d="M0 18V16.5H14V18H0ZM7 14.5C5.33333 14.5 4.02917 14.0125 3.0875 13.0375C2.14583 12.0625 1.675 10.7417 1.675 9.075V0.5H3.75V9.075C3.75 10.125 4.03333 10.9667 4.6 11.6C5.16667 12.2333 5.96667 12.55 7 12.55C8.03333 12.55 8.83333 12.2333 9.4 11.6C9.96667 10.9667 10.25 10.125 10.25 9.075V0.5H12.325V9.075C12.325 10.7417 11.8542 12.0625 10.9125 13.0375C9.97083 14.0125 8.66667 14.5 7 14.5Z" fill="#8246FD"/>
</svg>
