<svg width="24" height="25" viewBox="0 0 24 25" fill="none" xmlns="http://www.w3.org/2000/svg">
<g clip-path="url(#clip0_201_3127)">
<path d="M11.997 5.16665C11.7212 5.16665 11.4861 5.26486 11.2917 5.46128C11.0972 5.65768 11 5.89379 11 6.16961C11 6.44542 11.0982 6.68054 11.2946 6.87498C11.491 7.06943 11.7271 7.16665 12.003 7.16665C12.2788 7.16665 12.5139 7.06844 12.7083 6.87203C12.9028 6.67562 13 6.43951 13 6.16369C13 5.88789 12.9018 5.65276 12.7054 5.45832C12.509 5.26387 12.2729 5.16665 11.997 5.16665ZM11.997 10.8333C11.7212 10.8333 11.4861 10.9315 11.2917 11.1279C11.0972 11.3243 11 11.5605 11 11.8363C11 12.1121 11.0982 12.3472 11.2946 12.5417C11.491 12.7361 11.7271 12.8333 12.003 12.8333C12.2788 12.8333 12.5139 12.7351 12.7083 12.5387C12.9028 12.3423 13 12.1062 13 11.8304C13 11.5546 12.9018 11.3194 12.7054 11.125C12.509 10.9305 12.2729 10.8333 11.997 10.8333ZM11.997 16.5C11.7212 16.5 11.4861 16.5982 11.2917 16.7946C11.0972 16.991 11 17.2271 11 17.5029C11 17.7787 11.0982 18.0139 11.2946 18.2083C11.491 18.4028 11.7271 18.5 12.003 18.5C12.2788 18.5 12.5139 18.4018 12.7083 18.2054C12.9028 18.009 13 17.7728 13 17.497C13 17.2212 12.9018 16.9861 12.7054 16.7917C12.509 16.5972 12.2729 16.5 11.997 16.5Z" fill="#42464A"/>
</g>
<defs>
<clipPath id="clip0_201_3127">
<rect width="24" height="24" fill="white" transform="translate(0 0.5)"/>
</clipPath>
</defs>
</svg>
